{
	"asset":{
		"generator":"Khronos glTF Blender I/O v4.5.47",
		"version":"2.0"
	},
	"scene":0,
	"scenes":[
		{
			"name":"Scene",
			"nodes":[
				0,
				1,
				2,
				3,
				4,
				5,
				6,
				7,
				8,
				9,
				10,
				11,
				12,
				13,
				14,
				15,
				16,
				17,
				18,
				19,
				20,
				21,
				22,
				23,
				24,
				25,
				26,
				27,
				28,
				29,
				30,
				31,
				32,
				33,
				34,
				35,
				36,
				37,
				38,
				39,
				40,
				41,
				42,
				43,
				44,
				45
			]
		}
	],
	"nodes":[
		{
			"mesh":0,
			"name":"Cube.049",
			"scale":[
				3.7976155281066895,
				3.7976155281066895,
				3.7976155281066895
			],
			"translation":[
				3.1205084323883057,
				0.06589870899915695,
				1.6160762310028076
			]
		},
		{
			"mesh":1,
			"name":"Cube.047",
			"scale":[
				3.7976155281066895,
				3.7976155281066895,
				3.7976155281066895
			],
			"translation":[
				3.9636926651000977,
				0.06589870899915695,
				1.6160762310028076
			]
		},
		{
			"mesh":2,
			"name":"Cube.045",
			"scale":[
				3.7976155281066895,
				3.7976155281066895,
				3.7976155281066895
			],
			"translation":[
				2.2945632934570312,
				0.06747564673423767,
				1.6192960739135742
			]
		},
		{
			"mesh":3,
			"name":"Cube.043",
			"scale":[
				3.7976155281066895,
				3.7976155281066895,
				3.7976155281066895
			],
			"translation":[
				0.7463088035583496,
				0.06747564673423767,
				1.6192960739135742
			]
		},
		{
			"mesh":4,
			"name":"Cube.042",
			"scale":[
				3.7976155281066895,
				3.7976155281066895,
				3.7976155281066895
			],
			"translation":[
				1.4842360019683838,
				0.06747564673423767,
				1.6192960739135742
			]
		},
		{
			"mesh":5,
			"name":"Cube.041",
			"scale":[
				3.7976155281066895,
				3.7976155281066895,
				3.7976155281066895
			],
			"translation":[
				0.010097384452819824,
				0.06747564673423767,
				1.6192960739135742
			]
		},
		{
			"mesh":6,
			"name":"Cube.040",
			"scale":[
				3.7976155281066895,
				3.7976155281066895,
				3.7976155281066895
			],
			"translation":[
				0.9735018610954285,
				0.06747564673423767,
				-0.750532865524292
			]
		},
		{
			"mesh":7,
			"name":"Cube.039",
			"scale":[
				3.7976155281066895,
				3.7976155281066895,
				3.7976155281066895
			],
			"translation":[
				-0.7568988800048828,
				0.06747564673423767,
				1.6192960739135742
			]
		},
		{
			"mesh":8,
			"name":"Cube.038",
			"scale":[
				3.7976155281066895,
				3.7976155281066895,
				3.7976155281066895
			],
			"translation":[
				-2.3499631881713867,
				0.06747564673423767,
				1.6192960739135742
			]
		},
		{
			"mesh":9,
			"name":"Cube.037",
			"scale":[
				3.7976155281066895,
				3.7976155281066895,
				3.7976155281066895
			],
			"translation":[
				-3.1224074363708496,
				0.06747564673423767,
				1.6192960739135742
			]
		},
		{
			"mesh":10,
			"name":"Cube.036",
			"scale":[
				3.7976155281066895,
				3.7976155281066895,
				3.7976155281066895
			],
			"translation":[
				-3.942016124725342,
				0.06589870899915695,
				1.6160762310028076
			]
		},
		{
			"mesh":11,
			"name":"Cube.035",
			"scale":[
				3.7976155281066895,
				3.7976155281066895,
				3.7976155281066895
			],
			"translation":[
				3.9629592895507812,
				0.06589870899915695,
				0.6548184752464294
			]
		},
		{
			"mesh":12,
			"name":"Cube.034",
			"scale":[
				3.7976155281066895,
				3.7976155281066895,
				3.7976155281066895
			],
			"translation":[
				3.1159746646881104,
				0.06589870899915695,
				0.6548184752464294
			]
		},
		{
			"mesh":13,
			"name":"Cube.033",
			"scale":[
				3.7976155281066895,
				3.7976155281066895,
				3.7976155281066895
			],
			"translation":[
				2.3091630935668945,
				0.06589870899915695,
				0.6548184752464294
			]
		},
		{
			"mesh":14,
			"name":"Cube.032",
			"scale":[
				3.7976155281066895,
				3.7976155281066895,
				3.7976155281066895
			],
			"translation":[
				1.6276724338531494,
				0.06589870899915695,
				0.6548184752464294
			]
		},
		{
			"mesh":15,
			"name":"Cube.031",
			"scale":[
				3.7976155281066895,
				3.7976155281066895,
				3.7976155281066895
			],
			"translation":[
				0.9681851863861084,
				0.06589870899915695,
				0.6548184752464294
			]
		},
		{
			"mesh":16,
			"name":"Cube.030",
			"scale":[
				3.7976155281066895,
				3.7976155281066895,
				3.7976155281066895
			],
			"translation":[
				0.11440837383270264,
				0.06589870899915695,
				0.6548184752464294
			]
		},
		{
			"mesh":17,
			"name":"Cube.029",
			"scale":[
				3.7976155281066895,
				3.7976155281066895,
				3.7976155281066895
			],
			"translation":[
				-0.6371996402740479,
				0.29618939757347107,
				0.6548184752464294
			]
		},
		{
			"mesh":18,
			"name":"Cube.028",
			"scale":[
				3.7976155281066895,
				3.7976155281066895,
				3.7976155281066895
			],
			"translation":[
				-1.3492422103881836,
				0.27504733204841614,
				0.8609294295310974
			]
		},
		{
			"mesh":19,
			"name":"Cube.027",
			"scale":[
				3.7976155281066895,
				3.7976155281066895,
				3.7976155281066895
			],
			"translation":[
				-2.3652005195617676,
				0.06589870899915695,
				0.6548184752464294
			]
		},
		{
			"mesh":20,
			"name":"Cube.026",
			"rotation":[
				0,
				0,
				-0.7071066498756409,
				0.70710688829422
			],
			"scale":[
				3.7976155281066895,
				3.7976155281066895,
				3.7976155281066895
			],
			"translation":[
				-3.2097620964050293,
				0.06589870899915695,
				0.6548184752464294
			]
		},
		{
			"mesh":21,
			"name":"Cube.025",
			"scale":[
				3.7976155281066895,
				3.7976155281066895,
				3.7976155281066895
			],
			"translation":[
				2.9024453163146973,
				0.23817458748817444,
				-0.5780868530273438
			]
		},
		{
			"mesh":22,
			"name":"Cube.024",
			"scale":[
				3.7976155281066895,
				3.7976155281066895,
				3.7976155281066895
			],
			"translation":[
				1.8354676961898804,
				0.06703145056962967,
				-0.7514283657073975
			]
		},
		{
			"mesh":23,
			"name":"Cube.023",
			"scale":[
				3.7976155281066895,
				3.7976155281066895,
				3.7976155281066895
			],
			"translation":[
				-3.956261157989502,
				0.06589870899915695,
				0.6548184752464294
			]
		},
		{
			"mesh":24,
			"name":"Cube.022",
			"scale":[
				3.7976155281066895,
				3.7976155281066895,
				3.7976155281066895
			],
			"translation":[
				4.281357765197754,
				0.06589870899915695,
				-0.7487736344337463
			]
		},
		{
			"mesh":25,
			"name":"Cube.021",
			"scale":[
				3.7976155281066895,
				3.7976155281066895,
				3.7976155281066895
			],
			"translation":[
				3.5726282596588135,
				0.06589870899915695,
				-0.7487736344337463
			]
		},
		{
			"mesh":26,
			"name":"Cube.020",
			"scale":[
				3.7976155281066895,
				3.7976155281066895,
				3.7976155281066895
			],
			"translation":[
				-1.5800690650939941,
				0.06747564673423767,
				1.6192960739135742
			]
		},
		{
			"mesh":27,
			"name":"Cube.019",
			"scale":[
				3.7976155281066895,
				3.7976155281066895,
				3.7976155281066895
			],
			"translation":[
				0.161504864692688,
				0.06747564673423767,
				-0.750532865524292
			]
		},
		{
			"mesh":28,
			"name":"Cube.018",
			"scale":[
				3.7976155281066895,
				3.7976155281066895,
				3.7976155281066895
			],
			"translation":[
				-0.7880475521087646,
				0.06747564673423767,
				-0.750532865524292
			]
		},
		{
			"mesh":29,
			"name":"Cube.017",
			"scale":[
				3.7976155281066895,
				3.7976155281066895,
				3.7976155281066895
			],
			"translation":[
				-2.4203200340270996,
				0.06589870899915695,
				-0.7487736344337463
			]
		},
		{
			"mesh":30,
			"name":"Cube.015",
			"scale":[
				3.7976155281066895,
				3.7976155281066895,
				3.7976155281066895
			],
			"translation":[
				-1.6405277252197266,
				0.06747564673423767,
				-0.750532865524292
			]
		},
		{
			"mesh":31,
			"name":"Cube.014",
			"scale":[
				3.7976155281066895,
				3.7976155281066895,
				3.7976155281066895
			],
			"translation":[
				-3.2079873085021973,
				0.06589870899915695,
				-0.7487736344337463
			]
		},
		{
			"mesh":32,
			"name":"Cube.013",
			"scale":[
				3.7976155281066895,
				3.7976155281066895,
				3.7976155281066895
			],
			"translation":[
				4.184762001037598,
				0.06589870899915695,
				-2.1463921070098877
			]
		},
		{
			"mesh":33,
			"name":"Cube.012",
			"scale":[
				3.7976155281066895,
				3.7976155281066895,
				3.7976155281066895
			],
			"translation":[
				3.424237012863159,
				0.06589870899915695,
				-2.1463921070098877
			]
		},
		{
			"mesh":34,
			"name":"Cube.011",
			"rotation":[
				-0.7071068286895752,
				0,
				0.7071068286895752,
				2.837897454810445e-07
			],
			"scale":[
				3.7976155281066895,
				3.7976155281066895,
				3.7976155281066895
			],
			"translation":[
				2.552997350692749,
				0.06589870899915695,
				-2.1463921070098877
			]
		},
		{
			"mesh":35,
			"name":"Cube.010",
			"scale":[
				3.7976155281066895,
				3.7976155281066895,
				3.7976155281066895
			],
			"translation":[
				2.552997350692749,
				0.06589870899915695,
				-2.1463921070098877
			]
		},
		{
			"mesh":36,
			"name":"Cube.009",
			"scale":[
				3.7976155281066895,
				3.7976155281066895,
				3.7976155281066895
			],
			"translation":[
				1.7169729471206665,
				0.06589870899915695,
				-2.1463921070098877
			]
		},
		{
			"mesh":37,
			"name":"Cube.008",
			"scale":[
				3.7976155281066895,
				3.7976155281066895,
				3.7976155281066895
			],
			"translation":[
				1.7169729471206665,
				0.06589870899915695,
				-2.1463921070098877
			]
		},
		{
			"mesh":38,
			"name":"Cube.007",
			"scale":[
				3.7976155281066895,
				3.7976155281066895,
				3.7976155281066895
			],
			"translation":[
				-0.08036696910858154,
				0.06589870899915695,
				-2.1463921070098877
			]
		},
		{
			"mesh":39,
			"name":"Cube.006",
			"scale":[
				3.7976155281066895,
				3.7976155281066895,
				3.7976155281066895
			],
			"translation":[
				-0.949495792388916,
				0.06589870899915695,
				-2.1463921070098877
			]
		},
		{
			"mesh":40,
			"name":"Cube.005",
			"scale":[
				3.7976155281066895,
				3.7976155281066895,
				3.7976155281066895
			],
			"translation":[
				-1.72117018699646,
				0.06589870899915695,
				-2.1463921070098877
			]
		},
		{
			"mesh":41,
			"name":"Cube.004",
			"scale":[
				3.7976155281066895,
				3.7976155281066895,
				3.7976155281066895
			],
			"translation":[
				-2.508579730987549,
				0.06589870899915695,
				-2.1463921070098877
			]
		},
		{
			"mesh":42,
			"name":"Cube.003",
			"scale":[
				3.7976155281066895,
				3.7976155281066895,
				3.7976155281066895
			],
			"translation":[
				0.850161612033844,
				0.06589870899915695,
				-2.1463921070098877
			]
		},
		{
			"mesh":43,
			"name":"Cube.002",
			"scale":[
				3.7976155281066895,
				3.7976155281066895,
				3.7976155281066895
			],
			"translation":[
				-3.2144665718078613,
				0.06589870899915695,
				-2.1463921070098877
			]
		},
		{
			"mesh":44,
			"name":"Cube.001",
			"scale":[
				3.7976155281066895,
				3.7976155281066895,
				3.7976155281066895
			],
			"translation":[
				-3.9067912101745605,
				0.06589870899915695,
				-0.7487736344337463
			]
		},
		{
			"mesh":45,
			"name":"Cube",
			"scale":[
				3.7976155281066895,
				3.7976155281066895,
				3.7976155281066895
			],
			"translation":[
				-3.920745372772217,
				0.06589870899915695,
				-2.1463921070098877
			]
		}
	],
	"meshes":[
		{
			"name":"Cube.180",
			"primitives":[
				{
					"attributes":{
						"POSITION":0,
						"NORMAL":1,
						"TEXCOORD_0":2
					},
					"indices":3
				}
			]
		},
		{
			"name":"Cube.178",
			"primitives":[
				{
					"attributes":{
						"POSITION":4,
						"NORMAL":5,
						"TEXCOORD_0":6
					},
					"indices":7
				}
			]
		},
		{
			"name":"Cube.176",
			"primitives":[
				{
					"attributes":{
						"POSITION":8,
						"NORMAL":9,
						"TEXCOORD_0":10
					},
					"indices":11
				}
			]
		},
		{
			"name":"Cube.167",
			"primitives":[
				{
					"attributes":{
						"POSITION":12,
						"NORMAL":13,
						"TEXCOORD_0":14
					},
					"indices":15
				}
			]
		},
		{
			"name":"Cube.168",
			"primitives":[
				{
					"attributes":{
						"POSITION":16,
						"NORMAL":17,
						"TEXCOORD_0":18
					},
					"indices":19
				}
			]
		},
		{
			"name":"Cube.164",
			"primitives":[
				{
					"attributes":{
						"POSITION":20,
						"NORMAL":21,
						"TEXCOORD_0":22
					},
					"indices":23
				}
			]
		},
		{
			"name":"Cube.162",
			"primitives":[
				{
					"attributes":{
						"POSITION":24,
						"NORMAL":25,
						"TEXCOORD_0":26
					},
					"indices":27
				}
			]
		},
		{
			"name":"Cube.160",
			"primitives":[
				{
					"attributes":{
						"POSITION":28,
						"NORMAL":29,
						"TEXCOORD_0":30
					},
					"indices":31
				}
			]
		},
		{
			"name":"Cube.157",
			"primitives":[
				{
					"attributes":{
						"POSITION":32,
						"NORMAL":33,
						"TEXCOORD_0":34
					},
					"indices":35
				}
			]
		},
		{
			"name":"Cube.156",
			"primitives":[
				{
					"attributes":{
						"POSITION":36,
						"NORMAL":37,
						"TEXCOORD_0":38
					},
					"indices":39
				}
			]
		},
		{
			"name":"Cube.155",
			"primitives":[
				{
					"attributes":{
						"POSITION":40,
						"NORMAL":41,
						"TEXCOORD_0":42
					},
					"indices":43
				}
			]
		},
		{
			"name":"Cube.154",
			"primitives":[
				{
					"attributes":{
						"POSITION":44,
						"NORMAL":45,
						"TEXCOORD_0":46
					},
					"indices":47
				}
			]
		},
		{
			"name":"Cube.153",
			"primitives":[
				{
					"attributes":{
						"POSITION":48,
						"NORMAL":49,
						"TEXCOORD_0":50
					},
					"indices":51
				}
			]
		},
		{
			"name":"Cube.152",
			"primitives":[
				{
					"attributes":{
						"POSITION":52,
						"NORMAL":53,
						"TEXCOORD_0":54
					},
					"indices":55
				}
			]
		},
		{
			"name":"Cube.149",
			"primitives":[
				{
					"attributes":{
						"POSITION":56,
						"NORMAL":57,
						"TEXCOORD_0":58
					},
					"indices":59
				}
			]
		},
		{
			"name":"Cube.148",
			"primitives":[
				{
					"attributes":{
						"POSITION":60,
						"NORMAL":61,
						"TEXCOORD_0":62
					},
					"indices":63
				}
			]
		},
		{
			"name":"Cube.147",
			"primitives":[
				{
					"attributes":{
						"POSITION":64,
						"NORMAL":65,
						"TEXCOORD_0":66
					},
					"indices":67
				}
			]
		},
		{
			"name":"Cube.135",
			"primitives":[
				{
					"attributes":{
						"POSITION":68,
						"NORMAL":69,
						"TEXCOORD_0":70
					},
					"indices":71
				}
			]
		},
		{
			"name":"Cube.133",
			"primitives":[
				{
					"attributes":{
						"POSITION":72,
						"NORMAL":73,
						"TEXCOORD_0":74
					},
					"indices":75
				}
			]
		},
		{
			"name":"Cube.132",
			"primitives":[
				{
					"attributes":{
						"POSITION":76,
						"NORMAL":77,
						"TEXCOORD_0":78
					},
					"indices":79
				}
			]
		},
		{
			"name":"Cube.131",
			"primitives":[
				{
					"attributes":{
						"POSITION":80,
						"NORMAL":81,
						"TEXCOORD_0":82
					},
					"indices":83
				}
			]
		},
		{
			"name":"Cube.122",
			"primitives":[
				{
					"attributes":{
						"POSITION":84,
						"NORMAL":85,
						"TEXCOORD_0":86
					},
					"indices":87
				}
			]
		},
		{
			"name":"Cube.101",
			"primitives":[
				{
					"attributes":{
						"POSITION":88,
						"NORMAL":89,
						"TEXCOORD_0":90
					},
					"indices":91
				}
			]
		},
		{
			"name":"Cube.130",
			"primitives":[
				{
					"attributes":{
						"POSITION":92,
						"NORMAL":93,
						"TEXCOORD_0":94
					},
					"indices":83
				}
			]
		},
		{
			"name":"Cube.129",
			"primitives":[
				{
					"attributes":{
						"POSITION":95,
						"NORMAL":96,
						"TEXCOORD_0":97
					},
					"indices":98
				}
			]
		},
		{
			"name":"Cube.128",
			"primitives":[
				{
					"attributes":{
						"POSITION":99,
						"NORMAL":100,
						"TEXCOORD_0":101
					},
					"indices":102
				}
			]
		},
		{
			"name":"Cube.159",
			"primitives":[
				{
					"attributes":{
						"POSITION":103,
						"NORMAL":104,
						"TEXCOORD_0":105
					},
					"indices":106
				}
			]
		},
		{
			"name":"Cube.095",
			"primitives":[
				{
					"attributes":{
						"POSITION":107,
						"NORMAL":108,
						"TEXCOORD_0":109
					},
					"indices":110
				}
			]
		},
		{
			"name":"Cube.094",
			"primitives":[
				{
					"attributes":{
						"POSITION":111,
						"NORMAL":112,
						"TEXCOORD_0":113
					},
					"indices":114
				}
			]
		},
		{
			"name":"Cube.091",
			"primitives":[
				{
					"attributes":{
						"POSITION":115,
						"NORMAL":116,
						"TEXCOORD_0":117
					},
					"indices":118
				}
			]
		},
		{
			"name":"Cube.093",
			"primitives":[
				{
					"attributes":{
						"POSITION":119,
						"NORMAL":120,
						"TEXCOORD_0":121
					},
					"indices":122
				}
			]
		},
		{
			"name":"Cube.081",
			"primitives":[
				{
					"attributes":{
						"POSITION":123,
						"NORMAL":124,
						"TEXCOORD_0":125
					},
					"indices":126
				}
			]
		},
		{
			"name":"Cube.078",
			"primitives":[
				{
					"attributes":{
						"POSITION":127,
						"NORMAL":128,
						"TEXCOORD_0":129
					},
					"indices":130
				}
			]
		},
		{
			"name":"Cube.077",
			"primitives":[
				{
					"attributes":{
						"POSITION":131,
						"NORMAL":132,
						"TEXCOORD_0":133
					},
					"indices":134
				}
			]
		},
		{
			"name":"Cube.076",
			"primitives":[
				{
					"attributes":{
						"POSITION":135,
						"NORMAL":136,
						"TEXCOORD_0":137
					},
					"indices":138
				}
			]
		},
		{
			"name":"Cube.075",
			"primitives":[
				{
					"attributes":{
						"POSITION":139,
						"NORMAL":140,
						"TEXCOORD_0":141
					},
					"indices":138
				}
			]
		},
		{
			"name":"Cube.074",
			"primitives":[
				{
					"attributes":{
						"POSITION":142,
						"NORMAL":143,
						"TEXCOORD_0":144
					},
					"indices":145
				}
			]
		},
		{
			"name":"Cube.073",
			"primitives":[
				{
					"attributes":{
						"POSITION":146,
						"NORMAL":147,
						"TEXCOORD_0":148
					},
					"indices":149
				}
			]
		},
		{
			"name":"Cube.071",
			"primitives":[
				{
					"attributes":{
						"POSITION":150,
						"NORMAL":151,
						"TEXCOORD_0":152
					},
					"indices":153
				}
			]
		},
		{
			"name":"Cube.069",
			"primitives":[
				{
					"attributes":{
						"POSITION":154,
						"NORMAL":155,
						"TEXCOORD_0":156
					},
					"indices":157
				}
			]
		},
		{
			"name":"Cube.068",
			"primitives":[
				{
					"attributes":{
						"POSITION":158,
						"NORMAL":159,
						"TEXCOORD_0":160
					},
					"indices":161
				}
			]
		},
		{
			"name":"Cube.067",
			"primitives":[
				{
					"attributes":{
						"POSITION":162,
						"NORMAL":163,
						"TEXCOORD_0":164
					},
					"indices":165
				}
			]
		},
		{
			"name":"Cube.072",
			"primitives":[
				{
					"attributes":{
						"POSITION":166,
						"NORMAL":167,
						"TEXCOORD_0":168
					},
					"indices":169
				}
			]
		},
		{
			"name":"Cube.065",
			"primitives":[
				{
					"attributes":{
						"POSITION":170,
						"NORMAL":171,
						"TEXCOORD_0":172
					},
					"indices":173
				}
			]
		},
		{
			"name":"Cube.064",
			"primitives":[
				{
					"attributes":{
						"POSITION":174,
						"NORMAL":175,
						"TEXCOORD_0":176
					},
					"indices":177
				}
			]
		},
		{
			"name":"Cube.063",
			"primitives":[
				{
					"attributes":{
						"POSITION":178,
						"NORMAL":179,
						"TEXCOORD_0":180
					},
					"indices":181
				}
			]
		}
	],
	"accessors":[
		{
			"bufferView":0,
			"componentType":5126,
			"count":1299,
			"max":[
				0.07587038725614548,
				0.0759052187204361,
				0.07567891478538513
			],
			"min":[
				-0.07587041705846786,
				-0.0759052187204361,
				-0.07567894458770752
			],
			"type":"VEC3"
		},
		{
			"bufferView":1,
			"componentType":5126,
			"count":1299,
			"type":"VEC3"
		},
		{
			"bufferView":2,
			"componentType":5126,
			"count":1299,
			"type":"VEC2"
		},
		{
			"bufferView":3,
			"componentType":5123,
			"count":3192,
			"type":"SCALAR"
		},
		{
			"bufferView":4,
			"componentType":5126,
			"count":936,
			"max":[
				0.07650232315063477,
				0.07650232315063477,
				0.07650232315063477
			],
			"min":[
				-0.07650232315063477,
				-0.07650232315063477,
				-0.07650232315063477
			],
			"type":"VEC3"
		},
		{
			"bufferView":5,
			"componentType":5126,
			"count":936,
			"type":"VEC3"
		},
		{
			"bufferView":6,
			"componentType":5126,
			"count":936,
			"type":"VEC2"
		},
		{
			"bufferView":7,
			"componentType":5123,
			"count":2112,
			"type":"SCALAR"
		},
		{
			"bufferView":8,
			"componentType":5126,
			"count":1163,
			"max":[
				0.07582730799913406,
				0.06844478100538254,
				0.08005406707525253
			],
			"min":[
				-0.07582732290029526,
				-0.08326906710863113,
				-0.07195586711168289
			],
			"type":"VEC3"
		},
		{
			"bufferView":9,
			"componentType":5126,
			"count":1163,
			"type":"VEC3"
		},
		{
			"bufferView":10,
			"componentType":5126,
			"count":1163,
			"type":"VEC2"
		},
		{
			"bufferView":11,
			"componentType":5123,
			"count":2832,
			"type":"SCALAR"
		},
		{
			"bufferView":12,
			"componentType":5126,
			"count":1426,
			"max":[
				0.0672362819314003,
				0.0755435898900032,
				0.0673220083117485
			],
			"min":[
				-0.06708358228206635,
				-0.075543612241745,
				-0.06706569343805313
			],
			"type":"VEC3"
		},
		{
			"bufferView":13,
			"componentType":5126,
			"count":1426,
			"type":"VEC3"
		},
		{
			"bufferView":14,
			"componentType":5126,
			"count":1426,
			"type":"VEC2"
		},
		{
			"bufferView":15,
			"componentType":5123,
			"count":2820,
			"type":"SCALAR"
		},
		{
			"bufferView":16,
			"componentType":5126,
			"count":1104,
			"max":[
				0.07572481036186218,
				0.06760527193546295,
				0.07567545771598816
			],
			"min":[
				-0.07574453949928284,
				-0.08498909324407578,
				-0.07567547261714935
			],
			"type":"VEC3"
		},
		{
			"bufferView":17,
			"componentType":5126,
			"count":1104,
			"type":"VEC3"
		},
		{
			"bufferView":18,
			"componentType":5126,
			"count":1104,
			"type":"VEC2"
		},
		{
			"bufferView":19,
			"componentType":5123,
			"count":2472,
			"type":"SCALAR"
		},
		{
			"bufferView":20,
			"componentType":5126,
			"count":4803,
			"max":[
				0.07651665806770325,
				0.07603976875543594,
				0.07613389939069748
			],
			"min":[
				-0.07651671022176743,
				-0.07610039412975311,
				-0.07613387703895569
			],
			"type":"VEC3"
		},
		{
			"bufferView":21,
			"componentType":5126,
			"count":4803,
			"type":"VEC3"
		},
		{
			"bufferView":22,
			"componentType":5126,
			"count":4803,
			"type":"VEC2"
		},
		{
			"bufferView":23,
			"componentType":5123,
			"count":12852,
			"type":"SCALAR"
		},
		{
			"bufferView":24,
			"componentType":5126,
			"count":2658,
			"max":[
				0.07651665806770325,
				0.07603976875543594,
				0.07613389939069748
			],
			"min":[
				-0.07651671022176743,
				-0.07610039412975311,
				-0.07613387703895569
			],
			"type":"VEC3"
		},
		{
			"bufferView":25,
			"componentType":5126,
			"count":2658,
			"type":"VEC3"
		},
		{
			"bufferView":26,
			"componentType":5126,
			"count":2658,
			"type":"VEC2"
		},
		{
			"bufferView":27,
			"componentType":5123,
			"count":6948,
			"type":"SCALAR"
		},
		{
			"bufferView":28,
			"componentType":5126,
			"count":1018,
			"max":[
				0.07670282572507858,
				0.07670282572507858,
				0.07670282572507858
			],
			"min":[
				-0.07670282572507858,
				-0.07670282572507858,
				-0.07670282572507858
			],
			"type":"VEC3"
		},
		{
			"bufferView":29,
			"componentType":5126,
			"count":1018,
			"type":"VEC3"
		},
		{
			"bufferView":30,
			"componentType":5126,
			"count":1018,
			"type":"VEC2"
		},
		{
			"bufferView":31,
			"componentType":5123,
			"count":2460,
			"type":"SCALAR"
		},
		{
			"bufferView":32,
			"componentType":5126,
			"count":2580,
			"max":[
				0.07651665806770325,
				0.07610036432743073,
				0.07613389939069748
			],
			"min":[
				-0.07613394409418106,
				-0.07610039412975311,
				-0.07651665806770325
			],
			"type":"VEC3"
		},
		{
			"bufferView":33,
			"componentType":5126,
			"count":2580,
			"type":"VEC3"
		},
		{
			"bufferView":34,
			"componentType":5126,
			"count":2580,
			"type":"VEC2"
		},
		{
			"bufferView":35,
			"componentType":5123,
			"count":5772,
			"type":"SCALAR"
		},
		{
			"bufferView":36,
			"componentType":5126,
			"count":1372,
			"max":[
				0.07651665806770325,
				0.07603976875543594,
				0.07613389939069748
			],
			"min":[
				-0.07651671022176743,
				-0.07610039412975311,
				-0.07613387703895569
			],
			"type":"VEC3"
		},
		{
			"bufferView":37,
			"componentType":5126,
			"count":1372,
			"type":"VEC3"
		},
		{
			"bufferView":38,
			"componentType":5126,
			"count":1372,
			"type":"VEC2"
		},
		{
			"bufferView":39,
			"componentType":5123,
			"count":4080,
			"type":"SCALAR"
		},
		{
			"bufferView":40,
			"componentType":5126,
			"count":1102,
			"max":[
				0.07672882080078125,
				0.07672882080078125,
				0.07672882080078125
			],
			"min":[
				-0.07672882080078125,
				-0.07672882080078125,
				-0.07672882080078125
			],
			"type":"VEC3"
		},
		{
			"bufferView":41,
			"componentType":5126,
			"count":1102,
			"type":"VEC3"
		},
		{
			"bufferView":42,
			"componentType":5126,
			"count":1102,
			"type":"VEC2"
		},
		{
			"bufferView":43,
			"componentType":5123,
			"count":2586,
			"type":"SCALAR"
		},
		{
			"bufferView":44,
			"componentType":5126,
			"count":1144,
			"max":[
				0.07670282572507858,
				0.07670282572507858,
				0.0754714161157608
			],
			"min":[
				-0.07644103467464447,
				-0.07639738917350769,
				-0.07670282572507858
			],
			"type":"VEC3"
		},
		{
			"bufferView":45,
			"componentType":5126,
			"count":1144,
			"type":"VEC3"
		},
		{
			"bufferView":46,
			"componentType":5126,
			"count":1144,
			"type":"VEC2"
		},
		{
			"bufferView":47,
			"componentType":5123,
			"count":2256,
			"type":"SCALAR"
		},
		{
			"bufferView":48,
			"componentType":5126,
			"count":1782,
			"max":[
				0.07670282572507858,
				0.07470282912254333,
				0.07670282572507858
			],
			"min":[
				-0.07670282572507858,
				-0.07670283317565918,
				-0.07670282572507858
			],
			"type":"VEC3"
		},
		{
			"bufferView":49,
			"componentType":5126,
			"count":1782,
			"type":"VEC3"
		},
		{
			"bufferView":50,
			"componentType":5126,
			"count":1782,
			"type":"VEC2"
		},
		{
			"bufferView":51,
			"componentType":5123,
			"count":4020,
			"type":"SCALAR"
		},
		{
			"bufferView":52,
			"componentType":5126,
			"count":2770,
			"max":[
				0.07613319158554077,
				0.07670282572507858,
				0.07670282572507858
			],
			"min":[
				-0.07670282572507858,
				-0.0759865865111351,
				-0.07630965113639832
			],
			"type":"VEC3"
		},
		{
			"bufferView":53,
			"componentType":5126,
			"count":2770,
			"type":"VEC3"
		},
		{
			"bufferView":54,
			"componentType":5126,
			"count":2770,
			"type":"VEC2"
		},
		{
			"bufferView":55,
			"componentType":5123,
			"count":6576,
			"type":"SCALAR"
		},
		{
			"bufferView":56,
			"componentType":5126,
			"count":2291,
			"max":[
				0.0534115731716156,
				0.061924275010824203,
				0.05161348730325699
			],
			"min":[
				-0.07670282572507858,
				-0.07670282572507858,
				-0.07670282572507858
			],
			"type":"VEC3"
		},
		{
			"bufferView":57,
			"componentType":5126,
			"count":2291,
			"type":"VEC3"
		},
		{
			"bufferView":58,
			"componentType":5126,
			"count":2291,
			"type":"VEC2"
		},
		{
			"bufferView":59,
			"componentType":5123,
			"count":5544,
			"type":"SCALAR"
		},
		{
			"bufferView":60,
			"componentType":5126,
			"count":1815,
			"max":[
				0.0534115731716156,
				0.061924275010824203,
				0.05161348730325699
			],
			"min":[
				-0.07670282572507858,
				-0.07670282572507858,
				-0.07670282572507858
			],
			"type":"VEC3"
		},
		{
			"bufferView":61,
			"componentType":5126,
			"count":1815,
			"type":"VEC3"
		},
		{
			"bufferView":62,
			"componentType":5126,
			"count":1815,
			"type":"VEC2"
		},
		{
			"bufferView":63,
			"componentType":5123,
			"count":4062,
			"type":"SCALAR"
		},
		{
			"bufferView":64,
			"componentType":5126,
			"count":862,
			"max":[
				0.07670282572507858,
				0.07670282572507858,
				0.0754714161157608
			],
			"min":[
				-0.07644103467464447,
				-0.07639738917350769,
				-0.07670282572507858
			],
			"type":"VEC3"
		},
		{
			"bufferView":65,
			"componentType":5126,
			"count":862,
			"type":"VEC3"
		},
		{
			"bufferView":66,
			"componentType":5126,
			"count":862,
			"type":"VEC2"
		},
		{
			"bufferView":67,
			"componentType":5123,
			"count":1692,
			"type":"SCALAR"
		},
		{
			"bufferView":68,
			"componentType":5126,
			"count":3120,
			"max":[
				0.07551002502441406,
				0.01585422083735466,
				0.07558205723762512
			],
			"min":[
				-0.07624536752700806,
				-0.13540321588516235,
				-0.07645682990550995
			],
			"type":"VEC3"
		},
		{
			"bufferView":69,
			"componentType":5126,
			"count":3120,
			"type":"VEC3"
		},
		{
			"bufferView":70,
			"componentType":5126,
			"count":3120,
			"type":"VEC2"
		},
		{
			"bufferView":71,
			"componentType":5123,
			"count":7212,
			"type":"SCALAR"
		},
		{
			"bufferView":72,
			"componentType":5126,
			"count":1951,
			"max":[
				0.021464847028255463,
				0.021464847028255463,
				0.021464847028255463
			],
			"min":[
				-0.1305868923664093,
				-0.1308426707983017,
				-0.13080142438411713
			],
			"type":"VEC3"
		},
		{
			"bufferView":73,
			"componentType":5126,
			"count":1951,
			"type":"VEC3"
		},
		{
			"bufferView":74,
			"componentType":5126,
			"count":1951,
			"type":"VEC2"
		},
		{
			"bufferView":75,
			"componentType":5123,
			"count":4548,
			"type":"SCALAR"
		},
		{
			"bufferView":76,
			"componentType":5126,
			"count":616,
			"max":[
				0.07670282572507858,
				0.07670282572507858,
				0.07670282572507858
			],
			"min":[
				-0.07670282572507858,
				-0.07670282572507858,
				-0.07670282572507858
			],
			"type":"VEC3"
		},
		{
			"bufferView":77,
			"componentType":5126,
			"count":616,
			"type":"VEC3"
		},
		{
			"bufferView":78,
			"componentType":5126,
			"count":616,
			"type":"VEC2"
		},
		{
			"bufferView":79,
			"componentType":5123,
			"count":1512,
			"type":"SCALAR"
		},
		{
			"bufferView":80,
			"componentType":5126,
			"count":1318,
			"max":[
				0.07670282572507858,
				0.07670282572507858,
				0.07670282572507858
			],
			"min":[
				-0.07670282572507858,
				-0.07670282572507858,
				-0.07670282572507858
			],
			"type":"VEC3"
		},
		{
			"bufferView":81,
			"componentType":5126,
			"count":1318,
			"type":"VEC3"
		},
		{
			"bufferView":82,
			"componentType":5126,
			"count":1318,
			"type":"VEC2"
		},
		{
			"bufferView":83,
			"componentType":5123,
			"count":3456,
			"type":"SCALAR"
		},
		{
			"bufferView":84,
			"componentType":5126,
			"count":2336,
			"max":[
				0.030796373263001442,
				0.030796373263001442,
				0.030796373263001442
			],
			"min":[
				-0.12188564985990524,
				-0.12164788693189621,
				-0.12115560472011566
			],
			"type":"VEC3"
		},
		{
			"bufferView":85,
			"componentType":5126,
			"count":2336,
			"type":"VEC3"
		},
		{
			"bufferView":86,
			"componentType":5126,
			"count":2336,
			"type":"VEC2"
		},
		{
			"bufferView":87,
			"componentType":5123,
			"count":4512,
			"type":"SCALAR"
		},
		{
			"bufferView":88,
			"componentType":5126,
			"count":5785,
			"max":[
				0.07594858855009079,
				0.07604610174894333,
				0.07633256167173386
			],
			"min":[
				-0.07611104846000671,
				-0.07527028024196625,
				-0.07585998624563217
			],
			"type":"VEC3"
		},
		{
			"bufferView":89,
			"componentType":5126,
			"count":5785,
			"type":"VEC3"
		},
		{
			"bufferView":90,
			"componentType":5126,
			"count":5785,
			"type":"VEC2"
		},
		{
			"bufferView":91,
			"componentType":5123,
			"count":11280,
			"type":"SCALAR"
		},
		{
			"bufferView":92,
			"componentType":5126,
			"count":1318,
			"max":[
				0.07670282572507858,
				0.07670282572507858,
				0.07670282572507858
			],
			"min":[
				-0.07670282572507858,
				-0.07670282572507858,
				-0.07670282572507858
			],
			"type":"VEC3"
		},
		{
			"bufferView":93,
			"componentType":5126,
			"count":1318,
			"type":"VEC3"
		},
		{
			"bufferView":94,
			"componentType":5126,
			"count":1318,
			"type":"VEC2"
		},
		{
			"bufferView":95,
			"componentType":5126,
			"count":1562,
			"max":[
				0.0548202246427536,
				0.07670282572507858,
				0.07670282572507858
			],
			"min":[
				-0.07670282572507858,
				-0.07670282572507858,
				-0.07670282572507858
			],
			"type":"VEC3"
		},
		{
			"bufferView":96,
			"componentType":5126,
			"count":1562,
			"type":"VEC3"
		},
		{
			"bufferView":97,
			"componentType":5126,
			"count":1562,
			"type":"VEC2"
		},
		{
			"bufferView":98,
			"componentType":5123,
			"count":3252,
			"type":"SCALAR"
		},
		{
			"bufferView":99,
			"componentType":5126,
			"count":2503,
			"max":[
				0.057753730565309525,
				0.07670282572507858,
				0.059225551784038544
			],
			"min":[
				-0.07670282572507858,
				-0.07670282572507858,
				-0.07670282572507858
			],
			"type":"VEC3"
		},
		{
			"bufferView":100,
			"componentType":5126,
			"count":2503,
			"type":"VEC3"
		},
		{
			"bufferView":101,
			"componentType":5126,
			"count":2503,
			"type":"VEC2"
		},
		{
			"bufferView":102,
			"componentType":5123,
			"count":5532,
			"type":"SCALAR"
		},
		{
			"bufferView":103,
			"componentType":5126,
			"count":621,
			"max":[
				0.07670282572507858,
				0.07670282572507858,
				0.07670282572507858
			],
			"min":[
				-0.07670282572507858,
				-0.07670282572507858,
				-0.07670282572507858
			],
			"type":"VEC3"
		},
		{
			"bufferView":104,
			"componentType":5126,
			"count":621,
			"type":"VEC3"
		},
		{
			"bufferView":105,
			"componentType":5126,
			"count":621,
			"type":"VEC2"
		},
		{
			"bufferView":106,
			"componentType":5123,
			"count":1548,
			"type":"SCALAR"
		},
		{
			"bufferView":107,
			"componentType":5126,
			"count":1966,
			"max":[
				0.07674714922904968,
				0.07611726969480515,
				0.07638183236122131
			],
			"min":[
				-0.07651671022176743,
				-0.07610039412975311,
				-0.07613387703895569
			],
			"type":"VEC3"
		},
		{
			"bufferView":108,
			"componentType":5126,
			"count":1966,
			"type":"VEC3"
		},
		{
			"bufferView":109,
			"componentType":5126,
			"count":1966,
			"type":"VEC2"
		},
		{
			"bufferView":110,
			"componentType":5123,
			"count":4482,
			"type":"SCALAR"
		},
		{
			"bufferView":111,
			"componentType":5126,
			"count":1749,
			"max":[
				0.07651665806770325,
				0.07603976875543594,
				0.07613389939069748
			],
			"min":[
				-0.07651671022176743,
				-0.07610039412975311,
				-0.07613387703895569
			],
			"type":"VEC3"
		},
		{
			"bufferView":112,
			"componentType":5126,
			"count":1749,
			"type":"VEC3"
		},
		{
			"bufferView":113,
			"componentType":5126,
			"count":1749,
			"type":"VEC2"
		},
		{
			"bufferView":114,
			"componentType":5123,
			"count":4164,
			"type":"SCALAR"
		},
		{
			"bufferView":115,
			"componentType":5126,
			"count":3120,
			"max":[
				0.07670282572507858,
				0.07670282572507858,
				0.07670282572507858
			],
			"min":[
				-0.07670282572507858,
				-0.07657065242528915,
				-0.07670282572507858
			],
			"type":"VEC3"
		},
		{
			"bufferView":116,
			"componentType":5126,
			"count":3120,
			"type":"VEC3"
		},
		{
			"bufferView":117,
			"componentType":5126,
			"count":3120,
			"type":"VEC2"
		},
		{
			"bufferView":118,
			"componentType":5123,
			"count":6792,
			"type":"SCALAR"
		},
		{
			"bufferView":119,
			"componentType":5126,
			"count":4104,
			"max":[
				0.07651665806770325,
				0.07603976875543594,
				0.07613389939069748
			],
			"min":[
				-0.07651671022176743,
				-0.07610039412975311,
				-0.07613387703895569
			],
			"type":"VEC3"
		},
		{
			"bufferView":120,
			"componentType":5126,
			"count":4104,
			"type":"VEC3"
		},
		{
			"bufferView":121,
			"componentType":5126,
			"count":4104,
			"type":"VEC2"
		},
		{
			"bufferView":122,
			"componentType":5123,
			"count":10992,
			"type":"SCALAR"
		},
		{
			"bufferView":123,
			"componentType":5126,
			"count":1143,
			"max":[
				0.07670283317565918,
				0.07670282572507858,
				0.07670282572507858
			],
			"min":[
				-0.07643488049507141,
				-0.07670209556818008,
				-0.07696162164211273
			],
			"type":"VEC3"
		},
		{
			"bufferView":124,
			"componentType":5126,
			"count":1143,
			"type":"VEC3"
		},
		{
			"bufferView":125,
			"componentType":5126,
			"count":1143,
			"type":"VEC2"
		},
		{
			"bufferView":126,
			"componentType":5123,
			"count":2256,
			"type":"SCALAR"
		},
		{
			"bufferView":127,
			"componentType":5126,
			"count":553,
			"max":[
				0.07672882080078125,
				0.07672882080078125,
				0.07672882080078125
			],
			"min":[
				-0.07672882080078125,
				-0.07672882080078125,
				-0.07672882080078125
			],
			"type":"VEC3"
		},
		{
			"bufferView":128,
			"componentType":5126,
			"count":553,
			"type":"VEC3"
		},
		{
			"bufferView":129,
			"componentType":5126,
			"count":553,
			"type":"VEC2"
		},
		{
			"bufferView":130,
			"componentType":5123,
			"count":1128,
			"type":"SCALAR"
		},
		{
			"bufferView":131,
			"componentType":5126,
			"count":703,
			"max":[
				0.07672882080078125,
				0.07672882080078125,
				0.07672882080078125
			],
			"min":[
				-0.07672882080078125,
				-0.07672882080078125,
				-0.07672882080078125
			],
			"type":"VEC3"
		},
		{
			"bufferView":132,
			"componentType":5126,
			"count":703,
			"type":"VEC3"
		},
		{
			"bufferView":133,
			"componentType":5126,
			"count":703,
			"type":"VEC2"
		},
		{
			"bufferView":134,
			"componentType":5123,
			"count":1512,
			"type":"SCALAR"
		},
		{
			"bufferView":135,
			"componentType":5126,
			"count":595,
			"max":[
				0.07586763054132462,
				0.07648862153291702,
				0.07535722851753235
			],
			"min":[
				-0.07619941979646683,
				-0.07613132148981094,
				-0.07598672807216644
			],
			"type":"VEC3"
		},
		{
			"bufferView":136,
			"componentType":5126,
			"count":595,
			"type":"VEC3"
		},
		{
			"bufferView":137,
			"componentType":5126,
			"count":595,
			"type":"VEC2"
		},
		{
			"bufferView":138,
			"componentType":5123,
			"count":1356,
			"type":"SCALAR"
		},
		{
			"bufferView":139,
			"componentType":5126,
			"count":595,
			"max":[
				0.07586763054132462,
				0.07648862153291702,
				0.07535722851753235
			],
			"min":[
				-0.07619941979646683,
				-0.07613132148981094,
				-0.07598672807216644
			],
			"type":"VEC3"
		},
		{
			"bufferView":140,
			"componentType":5126,
			"count":595,
			"type":"VEC3"
		},
		{
			"bufferView":141,
			"componentType":5126,
			"count":595,
			"type":"VEC2"
		},
		{
			"bufferView":142,
			"componentType":5126,
			"count":668,
			"max":[
				0.07672882080078125,
				0.07672882080078125,
				0.07672882080078125
			],
			"min":[
				-0.07672882080078125,
				-0.07672882080078125,
				-0.07672882080078125
			],
			"type":"VEC3"
		},
		{
			"bufferView":143,
			"componentType":5126,
			"count":668,
			"type":"VEC3"
		},
		{
			"bufferView":144,
			"componentType":5126,
			"count":668,
			"type":"VEC2"
		},
		{
			"bufferView":145,
			"componentType":5123,
			"count":1494,
			"type":"SCALAR"
		},
		{
			"bufferView":146,
			"componentType":5126,
			"count":521,
			"max":[
				0.07672882080078125,
				0.07672882080078125,
				0.07672882080078125
			],
			"min":[
				0.01539650745689869,
				-0.07672882080078125,
				-0.07672882080078125
			],
			"type":"VEC3"
		},
		{
			"bufferView":147,
			"componentType":5126,
			"count":521,
			"type":"VEC3"
		},
		{
			"bufferView":148,
			"componentType":5126,
			"count":521,
			"type":"VEC2"
		},
		{
			"bufferView":149,
			"componentType":5123,
			"count":1140,
			"type":"SCALAR"
		},
		{
			"bufferView":150,
			"componentType":5126,
			"count":857,
			"max":[
				0.07672882080078125,
				0.07672882080078125,
				0.07672882080078125
			],
			"min":[
				-0.07672882080078125,
				-0.07672882080078125,
				-0.07672882080078125
			],
			"type":"VEC3"
		},
		{
			"bufferView":151,
			"componentType":5126,
			"count":857,
			"type":"VEC3"
		},
		{
			"bufferView":152,
			"componentType":5126,
			"count":857,
			"type":"VEC2"
		},
		{
			"bufferView":153,
			"componentType":5123,
			"count":1956,
			"type":"SCALAR"
		},
		{
			"bufferView":154,
			"componentType":5126,
			"count":1277,
			"max":[
				0.07672882080078125,
				0.07672882080078125,
				0.07672882080078125
			],
			"min":[
				-0.07672882080078125,
				-0.07672882080078125,
				-0.07672882080078125
			],
			"type":"VEC3"
		},
		{
			"bufferView":155,
			"componentType":5126,
			"count":1277,
			"type":"VEC3"
		},
		{
			"bufferView":156,
			"componentType":5126,
			"count":1277,
			"type":"VEC2"
		},
		{
			"bufferView":157,
			"componentType":5123,
			"count":2940,
			"type":"SCALAR"
		},
		{
			"bufferView":158,
			"componentType":5126,
			"count":1017,
			"max":[
				0.07672882080078125,
				0.07672882080078125,
				0.07672882080078125
			],
			"min":[
				-0.07672882080078125,
				-0.07672882080078125,
				-0.07672882080078125
			],
			"type":"VEC3"
		},
		{
			"bufferView":159,
			"componentType":5126,
			"count":1017,
			"type":"VEC3"
		},
		{
			"bufferView":160,
			"componentType":5126,
			"count":1017,
			"type":"VEC2"
		},
		{
			"bufferView":161,
			"componentType":5123,
			"count":2460,
			"type":"SCALAR"
		},
		{
			"bufferView":162,
			"componentType":5126,
			"count":1006,
			"max":[
				0.07672882080078125,
				0.07672882080078125,
				0.07672882080078125
			],
			"min":[
				-0.07672882080078125,
				-0.07672882080078125,
				-0.07672882080078125
			],
			"type":"VEC3"
		},
		{
			"bufferView":163,
			"componentType":5126,
			"count":1006,
			"type":"VEC3"
		},
		{
			"bufferView":164,
			"componentType":5126,
			"count":1006,
			"type":"VEC2"
		},
		{
			"bufferView":165,
			"componentType":5123,
			"count":2460,
			"type":"SCALAR"
		},
		{
			"bufferView":166,
			"componentType":5126,
			"count":1472,
			"max":[
				0.07672882080078125,
				0.07672882080078125,
				0.07672882080078125
			],
			"min":[
				-0.07672882080078125,
				-0.07672882080078125,
				-0.07672882080078125
			],
			"type":"VEC3"
		},
		{
			"bufferView":167,
			"componentType":5126,
			"count":1472,
			"type":"VEC3"
		},
		{
			"bufferView":168,
			"componentType":5126,
			"count":1472,
			"type":"VEC2"
		},
		{
			"bufferView":169,
			"componentType":5123,
			"count":4080,
			"type":"SCALAR"
		},
		{
			"bufferView":170,
			"componentType":5126,
			"count":808,
			"max":[
				0.07672882080078125,
				0.07672882080078125,
				0.07672882080078125
			],
			"min":[
				-0.07672882080078125,
				-0.07672882080078125,
				-0.07672882080078125
			],
			"type":"VEC3"
		},
		{
			"bufferView":171,
			"componentType":5126,
			"count":808,
			"type":"VEC3"
		},
		{
			"bufferView":172,
			"componentType":5126,
			"count":808,
			"type":"VEC2"
		},
		{
			"bufferView":173,
			"componentType":5123,
			"count":1794,
			"type":"SCALAR"
		},
		{
			"bufferView":174,
			"componentType":5126,
			"count":1118,
			"max":[
				0.07672882080078125,
				0.07672882080078125,
				0.07672882080078125
			],
			"min":[
				-0.07672882080078125,
				-0.07672882080078125,
				-0.07672882080078125
			],
			"type":"VEC3"
		},
		{
			"bufferView":175,
			"componentType":5126,
			"count":1118,
			"type":"VEC3"
		},
		{
			"bufferView":176,
			"componentType":5126,
			"count":1118,
			"type":"VEC2"
		},
		{
			"bufferView":177,
			"componentType":5123,
			"count":2256,
			"type":"SCALAR"
		},
		{
			"bufferView":178,
			"componentType":5126,
			"count":528,
			"max":[
				0.07711732387542725,
				0.07711732387542725,
				0.07711732387542725
			],
			"min":[
				-0.07711732387542725,
				-0.07711732387542725,
				-0.07711732387542725
			],
			"type":"VEC3"
		},
		{
			"bufferView":179,
			"componentType":5126,
			"count":528,
			"type":"VEC3"
		},
		{
			"bufferView":180,
			"componentType":5126,
			"count":528,
			"type":"VEC2"
		},
		{
			"bufferView":181,
			"componentType":5123,
			"count":1230,
			"type":"SCALAR"
		}
	],
	"bufferViews":[
		{
			"buffer":0,
			"byteLength":15588,
			"byteOffset":0,
			"target":34962
		},
		{
			"buffer":0,
			"byteLength":15588,
			"byteOffset":15588,
			"target":34962
		},
		{
			"buffer":0,
			"byteLength":10392,
			"byteOffset":31176,
			"target":34962
		},
		{
			"buffer":0,
			"byteLength":6384,
			"byteOffset":41568,
			"target":34963
		},
		{
			"buffer":0,
			"byteLength":11232,
			"byteOffset":47952,
			"target":34962
		},
		{
			"buffer":0,
			"byteLength":11232,
			"byteOffset":59184,
			"target":34962
		},
		{
			"buffer":0,
			"byteLength":7488,
			"byteOffset":70416,
			"target":34962
		},
		{
			"buffer":0,
			"byteLength":4224,
			"byteOffset":77904,
			"target":34963
		},
		{
			"buffer":0,
			"byteLength":13956,
			"byteOffset":82128,
			"target":34962
		},
		{
			"buffer":0,
			"byteLength":13956,
			"byteOffset":96084,
			"target":34962
		},
		{
			"buffer":0,
			"byteLength":9304,
			"byteOffset":110040,
			"target":34962
		},
		{
			"buffer":0,
			"byteLength":5664,
			"byteOffset":119344,
			"target":34963
		},
		{
			"buffer":0,
			"byteLength":17112,
			"byteOffset":125008,
			"target":34962
		},
		{
			"buffer":0,
			"byteLength":17112,
			"byteOffset":142120,
			"target":34962
		},
		{
			"buffer":0,
			"byteLength":11408,
			"byteOffset":159232,
			"target":34962
		},
		{
			"buffer":0,
			"byteLength":5640,
			"byteOffset":170640,
			"target":34963
		},
		{
			"buffer":0,
			"byteLength":13248,
			"byteOffset":176280,
			"target":34962
		},
		{
			"buffer":0,
			"byteLength":13248,
			"byteOffset":189528,
			"target":34962
		},
		{
			"buffer":0,
			"byteLength":8832,
			"byteOffset":202776,
			"target":34962
		},
		{
			"buffer":0,
			"byteLength":4944,
			"byteOffset":211608,
			"target":34963
		},
		{
			"buffer":0,
			"byteLength":57636,
			"byteOffset":216552,
			"target":34962
		},
		{
			"buffer":0,
			"byteLength":57636,
			"byteOffset":274188,
			"target":34962
		},
		{
			"buffer":0,
			"byteLength":38424,
			"byteOffset":331824,
			"target":34962
		},
		{
			"buffer":0,
			"byteLength":25704,
			"byteOffset":370248,
			"target":34963
		},
		{
			"buffer":0,
			"byteLength":31896,
			"byteOffset":395952,
			"target":34962
		},
		{
			"buffer":0,
			"byteLength":31896,
			"byteOffset":427848,
			"target":34962
		},
		{
			"buffer":0,
			"byteLength":21264,
			"byteOffset":459744,
			"target":34962
		},
		{
			"buffer":0,
			"byteLength":13896,
			"byteOffset":481008,
			"target":34963
		},
		{
			"buffer":0,
			"byteLength":12216,
			"byteOffset":494904,
			"target":34962
		},
		{
			"buffer":0,
			"byteLength":12216,
			"byteOffset":507120,
			"target":34962
		},
		{
			"buffer":0,
			"byteLength":8144,
			"byteOffset":519336,
			"target":34962
		},
		{
			"buffer":0,
			"byteLength":4920,
			"byteOffset":527480,
			"target":34963
		},
		{
			"buffer":0,
			"byteLength":30960,
			"byteOffset":532400,
			"target":34962
		},
		{
			"buffer":0,
			"byteLength":30960,
			"byteOffset":563360,
			"target":34962
		},
		{
			"buffer":0,
			"byteLength":20640,
			"byteOffset":594320,
			"target":34962
		},
		{
			"buffer":0,
			"byteLength":11544,
			"byteOffset":614960,
			"target":34963
		},
		{
			"buffer":0,
			"byteLength":16464,
			"byteOffset":626504,
			"target":34962
		},
		{
			"buffer":0,
			"byteLength":16464,
			"byteOffset":642968,
			"target":34962
		},
		{
			"buffer":0,
			"byteLength":10976,
			"byteOffset":659432,
			"target":34962
		},
		{
			"buffer":0,
			"byteLength":8160,
			"byteOffset":670408,
			"target":34963
		},
		{
			"buffer":0,
			"byteLength":13224,
			"byteOffset":678568,
			"target":34962
		},
		{
			"buffer":0,
			"byteLength":13224,
			"byteOffset":691792,
			"target":34962
		},
		{
			"buffer":0,
			"byteLength":8816,
			"byteOffset":705016,
			"target":34962
		},
		{
			"buffer":0,
			"byteLength":5172,
			"byteOffset":713832,
			"target":34963
		},
		{
			"buffer":0,
			"byteLength":13728,
			"byteOffset":719004,
			"target":34962
		},
		{
			"buffer":0,
			"byteLength":13728,
			"byteOffset":732732,
			"target":34962
		},
		{
			"buffer":0,
			"byteLength":9152,
			"byteOffset":746460,
			"target":34962
		},
		{
			"buffer":0,
			"byteLength":4512,
			"byteOffset":755612,
			"target":34963
		},
		{
			"buffer":0,
			"byteLength":21384,
			"byteOffset":760124,
			"target":34962
		},
		{
			"buffer":0,
			"byteLength":21384,
			"byteOffset":781508,
			"target":34962
		},
		{
			"buffer":0,
			"byteLength":14256,
			"byteOffset":802892,
			"target":34962
		},
		{
			"buffer":0,
			"byteLength":8040,
			"byteOffset":817148,
			"target":34963
		},
		{
			"buffer":0,
			"byteLength":33240,
			"byteOffset":825188,
			"target":34962
		},
		{
			"buffer":0,
			"byteLength":33240,
			"byteOffset":858428,
			"target":34962
		},
		{
			"buffer":0,
			"byteLength":22160,
			"byteOffset":891668,
			"target":34962
		},
		{
			"buffer":0,
			"byteLength":13152,
			"byteOffset":913828,
			"target":34963
		},
		{
			"buffer":0,
			"byteLength":27492,
			"byteOffset":926980,
			"target":34962
		},
		{
			"buffer":0,
			"byteLength":27492,
			"byteOffset":954472,
			"target":34962
		},
		{
			"buffer":0,
			"byteLength":18328,
			"byteOffset":981964,
			"target":34962
		},
		{
			"buffer":0,
			"byteLength":11088,
			"byteOffset":1000292,
			"target":34963
		},
		{
			"buffer":0,
			"byteLength":21780,
			"byteOffset":1011380,
			"target":34962
		},
		{
			"buffer":0,
			"byteLength":21780,
			"byteOffset":1033160,
			"target":34962
		},
		{
			"buffer":0,
			"byteLength":14520,
			"byteOffset":1054940,
			"target":34962
		},
		{
			"buffer":0,
			"byteLength":8124,
			"byteOffset":1069460,
			"target":34963
		},
		{
			"buffer":0,
			"byteLength":10344,
			"byteOffset":1077584,
			"target":34962
		},
		{
			"buffer":0,
			"byteLength":10344,
			"byteOffset":1087928,
			"target":34962
		},
		{
			"buffer":0,
			"byteLength":6896,
			"byteOffset":1098272,
			"target":34962
		},
		{
			"buffer":0,
			"byteLength":3384,
			"byteOffset":1105168,
			"target":34963
		},
		{
			"buffer":0,
			"byteLength":37440,
			"byteOffset":1108552,
			"target":34962
		},
		{
			"buffer":0,
			"byteLength":37440,
			"byteOffset":1145992,
			"target":34962
		},
		{
			"buffer":0,
			"byteLength":24960,
			"byteOffset":1183432,
			"target":34962
		},
		{
			"buffer":0,
			"byteLength":14424,
			"byteOffset":1208392,
			"target":34963
		},
		{
			"buffer":0,
			"byteLength":23412,
			"byteOffset":1222816,
			"target":34962
		},
		{
			"buffer":0,
			"byteLength":23412,
			"byteOffset":1246228,
			"target":34962
		},
		{
			"buffer":0,
			"byteLength":15608,
			"byteOffset":1269640,
			"target":34962
		},
		{
			"buffer":0,
			"byteLength":9096,
			"byteOffset":1285248,
			"target":34963
		},
		{
			"buffer":0,
			"byteLength":7392,
			"byteOffset":1294344,
			"target":34962
		},
		{
			"buffer":0,
			"byteLength":7392,
			"byteOffset":1301736,
			"target":34962
		},
		{
			"buffer":0,
			"byteLength":4928,
			"byteOffset":1309128,
			"target":34962
		},
		{
			"buffer":0,
			"byteLength":3024,
			"byteOffset":1314056,
			"target":34963
		},
		{
			"buffer":0,
			"byteLength":15816,
			"byteOffset":1317080,
			"target":34962
		},
		{
			"buffer":0,
			"byteLength":15816,
			"byteOffset":1332896,
			"target":34962
		},
		{
			"buffer":0,
			"byteLength":10544,
			"byteOffset":1348712,
			"target":34962
		},
		{
			"buffer":0,
			"byteLength":6912,
			"byteOffset":1359256,
			"target":34963
		},
		{
			"buffer":0,
			"byteLength":28032,
			"byteOffset":1366168,
			"target":34962
		},
		{
			"buffer":0,
			"byteLength":28032,
			"byteOffset":1394200,
			"target":34962
		},
		{
			"buffer":0,
			"byteLength":18688,
			"byteOffset":1422232,
			"target":34962
		},
		{
			"buffer":0,
			"byteLength":9024,
			"byteOffset":1440920,
			"target":34963
		},
		{
			"buffer":0,
			"byteLength":69420,
			"byteOffset":1449944,
			"target":34962
		},
		{
			"buffer":0,
			"byteLength":69420,
			"byteOffset":1519364,
			"target":34962
		},
		{
			"buffer":0,
			"byteLength":46280,
			"byteOffset":1588784,
			"target":34962
		},
		{
			"buffer":0,
			"byteLength":22560,
			"byteOffset":1635064,
			"target":34963
		},
		{
			"buffer":0,
			"byteLength":15816,
			"byteOffset":1657624,
			"target":34962
		},
		{
			"buffer":0,
			"byteLength":15816,
			"byteOffset":1673440,
			"target":34962
		},
		{
			"buffer":0,
			"byteLength":10544,
			"byteOffset":1689256,
			"target":34962
		},
		{
			"buffer":0,
			"byteLength":18744,
			"byteOffset":1699800,
			"target":34962
		},
		{
			"buffer":0,
			"byteLength":18744,
			"byteOffset":1718544,
			"target":34962
		},
		{
			"buffer":0,
			"byteLength":12496,
			"byteOffset":1737288,
			"target":34962
		},
		{
			"buffer":0,
			"byteLength":6504,
			"byteOffset":1749784,
			"target":34963
		},
		{
			"buffer":0,
			"byteLength":30036,
			"byteOffset":1756288,
			"target":34962
		},
		{
			"buffer":0,
			"byteLength":30036,
			"byteOffset":1786324,
			"target":34962
		},
		{
			"buffer":0,
			"byteLength":20024,
			"byteOffset":1816360,
			"target":34962
		},
		{
			"buffer":0,
			"byteLength":11064,
			"byteOffset":1836384,
			"target":34963
		},
		{
			"buffer":0,
			"byteLength":7452,
			"byteOffset":1847448,
			"target":34962
		},
		{
			"buffer":0,
			"byteLength":7452,
			"byteOffset":1854900,
			"target":34962
		},
		{
			"buffer":0,
			"byteLength":4968,
			"byteOffset":1862352,
			"target":34962
		},
		{
			"buffer":0,
			"byteLength":3096,
			"byteOffset":1867320,
			"target":34963
		},
		{
			"buffer":0,
			"byteLength":23592,
			"byteOffset":1870416,
			"target":34962
		},
		{
			"buffer":0,
			"byteLength":23592,
			"byteOffset":1894008,
			"target":34962
		},
		{
			"buffer":0,
			"byteLength":15728,
			"byteOffset":1917600,
			"target":34962
		},
		{
			"buffer":0,
			"byteLength":8964,
			"byteOffset":1933328,
			"target":34963
		},
		{
			"buffer":0,
			"byteLength":20988,
			"byteOffset":1942292,
			"target":34962
		},
		{
			"buffer":0,
			"byteLength":20988,
			"byteOffset":1963280,
			"target":34962
		},
		{
			"buffer":0,
			"byteLength":13992,
			"byteOffset":1984268,
			"target":34962
		},
		{
			"buffer":0,
			"byteLength":8328,
			"byteOffset":1998260,
			"target":34963
		},
		{
			"buffer":0,
			"byteLength":37440,
			"byteOffset":2006588,
			"target":34962
		},
		{
			"buffer":0,
			"byteLength":37440,
			"byteOffset":2044028,
			"target":34962
		},
		{
			"buffer":0,
			"byteLength":24960,
			"byteOffset":2081468,
			"target":34962
		},
		{
			"buffer":0,
			"byteLength":13584,
			"byteOffset":2106428,
			"target":34963
		},
		{
			"buffer":0,
			"byteLength":49248,
			"byteOffset":2120012,
			"target":34962
		},
		{
			"buffer":0,
			"byteLength":49248,
			"byteOffset":2169260,
			"target":34962
		},
		{
			"buffer":0,
			"byteLength":32832,
			"byteOffset":2218508,
			"target":34962
		},
		{
			"buffer":0,
			"byteLength":21984,
			"byteOffset":2251340,
			"target":34963
		},
		{
			"buffer":0,
			"byteLength":13716,
			"byteOffset":2273324,
			"target":34962
		},
		{
			"buffer":0,
			"byteLength":13716,
			"byteOffset":2287040,
			"target":34962
		},
		{
			"buffer":0,
			"byteLength":9144,
			"byteOffset":2300756,
			"target":34962
		},
		{
			"buffer":0,
			"byteLength":4512,
			"byteOffset":2309900,
			"target":34963
		},
		{
			"buffer":0,
			"byteLength":6636,
			"byteOffset":2314412,
			"target":34962
		},
		{
			"buffer":0,
			"byteLength":6636,
			"byteOffset":2321048,
			"target":34962
		},
		{
			"buffer":0,
			"byteLength":4424,
			"byteOffset":2327684,
			"target":34962
		},
		{
			"buffer":0,
			"byteLength":2256,
			"byteOffset":2332108,
			"target":34963
		},
		{
			"buffer":0,
			"byteLength":8436,
			"byteOffset":2334364,
			"target":34962
		},
		{
			"buffer":0,
			"byteLength":8436,
			"byteOffset":2342800,
			"target":34962
		},
		{
			"buffer":0,
			"byteLength":5624,
			"byteOffset":2351236,
			"target":34962
		},
		{
			"buffer":0,
			"byteLength":3024,
			"byteOffset":2356860,
			"target":34963
		},
		{
			"buffer":0,
			"byteLength":7140,
			"byteOffset":2359884,
			"target":34962
		},
		{
			"buffer":0,
			"byteLength":7140,
			"byteOffset":2367024,
			"target":34962
		},
		{
			"buffer":0,
			"byteLength":4760,
			"byteOffset":2374164,
			"target":34962
		},
		{
			"buffer":0,
			"byteLength":2712,
			"byteOffset":2378924,
			"target":34963
		},
		{
			"buffer":0,
			"byteLength":7140,
			"byteOffset":2381636,
			"target":34962
		},
		{
			"buffer":0,
			"byteLength":7140,
			"byteOffset":2388776,
			"target":34962
		},
		{
			"buffer":0,
			"byteLength":4760,
			"byteOffset":2395916,
			"target":34962
		},
		{
			"buffer":0,
			"byteLength":8016,
			"byteOffset":2400676,
			"target":34962
		},
		{
			"buffer":0,
			"byteLength":8016,
			"byteOffset":2408692,
			"target":34962
		},
		{
			"buffer":0,
			"byteLength":5344,
			"byteOffset":2416708,
			"target":34962
		},
		{
			"buffer":0,
			"byteLength":2988,
			"byteOffset":2422052,
			"target":34963
		},
		{
			"buffer":0,
			"byteLength":6252,
			"byteOffset":2425040,
			"target":34962
		},
		{
			"buffer":0,
			"byteLength":6252,
			"byteOffset":2431292,
			"target":34962
		},
		{
			"buffer":0,
			"byteLength":4168,
			"byteOffset":2437544,
			"target":34962
		},
		{
			"buffer":0,
			"byteLength":2280,
			"byteOffset":2441712,
			"target":34963
		},
		{
			"buffer":0,
			"byteLength":10284,
			"byteOffset":2443992,
			"target":34962
		},
		{
			"buffer":0,
			"byteLength":10284,
			"byteOffset":2454276,
			"target":34962
		},
		{
			"buffer":0,
			"byteLength":6856,
			"byteOffset":2464560,
			"target":34962
		},
		{
			"buffer":0,
			"byteLength":3912,
			"byteOffset":2471416,
			"target":34963
		},
		{
			"buffer":0,
			"byteLength":15324,
			"byteOffset":2475328,
			"target":34962
		},
		{
			"buffer":0,
			"byteLength":15324,
			"byteOffset":2490652,
			"target":34962
		},
		{
			"buffer":0,
			"byteLength":10216,
			"byteOffset":2505976,
			"target":34962
		},
		{
			"buffer":0,
			"byteLength":5880,
			"byteOffset":2516192,
			"target":34963
		},
		{
			"buffer":0,
			"byteLength":12204,
			"byteOffset":2522072,
			"target":34962
		},
		{
			"buffer":0,
			"byteLength":12204,
			"byteOffset":2534276,
			"target":34962
		},
		{
			"buffer":0,
			"byteLength":8136,
			"byteOffset":2546480,
			"target":34962
		},
		{
			"buffer":0,
			"byteLength":4920,
			"byteOffset":2554616,
			"target":34963
		},
		{
			"buffer":0,
			"byteLength":12072,
			"byteOffset":2559536,
			"target":34962
		},
		{
			"buffer":0,
			"byteLength":12072,
			"byteOffset":2571608,
			"target":34962
		},
		{
			"buffer":0,
			"byteLength":8048,
			"byteOffset":2583680,
			"target":34962
		},
		{
			"buffer":0,
			"byteLength":4920,
			"byteOffset":2591728,
			"target":34963
		},
		{
			"buffer":0,
			"byteLength":17664,
			"byteOffset":2596648,
			"target":34962
		},
		{
			"buffer":0,
			"byteLength":17664,
			"byteOffset":2614312,
			"target":34962
		},
		{
			"buffer":0,
			"byteLength":11776,
			"byteOffset":2631976,
			"target":34962
		},
		{
			"buffer":0,
			"byteLength":8160,
			"byteOffset":2643752,
			"target":34963
		},
		{
			"buffer":0,
			"byteLength":9696,
			"byteOffset":2651912,
			"target":34962
		},
		{
			"buffer":0,
			"byteLength":9696,
			"byteOffset":2661608,
			"target":34962
		},
		{
			"buffer":0,
			"byteLength":6464,
			"byteOffset":2671304,
			"target":34962
		},
		{
			"buffer":0,
			"byteLength":3588,
			"byteOffset":2677768,
			"target":34963
		},
		{
			"buffer":0,
			"byteLength":13416,
			"byteOffset":2681356,
			"target":34962
		},
		{
			"buffer":0,
			"byteLength":13416,
			"byteOffset":2694772,
			"target":34962
		},
		{
			"buffer":0,
			"byteLength":8944,
			"byteOffset":2708188,
			"target":34962
		},
		{
			"buffer":0,
			"byteLength":4512,
			"byteOffset":2717132,
			"target":34963
		},
		{
			"buffer":0,
			"byteLength":6336,
			"byteOffset":2721644,
			"target":34962
		},
		{
			"buffer":0,
			"byteLength":6336,
			"byteOffset":2727980,
			"target":34962
		},
		{
			"buffer":0,
			"byteLength":4224,
			"byteOffset":2734316,
			"target":34962
		},
		{
			"buffer":0,
			"byteLength":2460,
			"byteOffset":2738540,
			"target":34963
		}
	],
	"buffers":[
		{
			"byteLength":2741000,
			"uri":"3d%20Isometric%20Cube%20Designs.bin"
		}
	]
}
